<?xml version="1.0" encoding="UTF-8"?>
<svg stroke-dasharray="none" shape-rendering="auto"
    font-family="'Dialog'" width="751" text-rendering="auto"
    fill-opacity="1" color-interpolation="auto" color-rendering="auto"
    font-size="12" fill="black" stroke="black" image-rendering="auto"
    stroke-miterlimit="10" stroke-linecap="square"
    stroke-linejoin="miter" font-style="normal" height="401"
    stroke-width="1" stroke-dashoffset="0" font-weight="normal" stroke-opacity="1">
    <!--Generated by the Batik Graphics2D SVG Generator-->
    <defs id="genericDefs"/>
    <g>
        <defs id="defs1">
            <clipPath clipPathUnits="userSpaceOnUse" id="clipPath1">
                <path d="M-1 -1 L575 -1 L575 401 L-1 401 L-1 -1 Z"/>
            </clipPath>
            <clipPath clipPathUnits="userSpaceOnUse" id="clipPath2">
                <path d="M2 2 L39 2 L39 13 L2 13 L2 2 Z"/>
            </clipPath>
            <clipPath clipPathUnits="userSpaceOnUse" id="clipPath3">
                <path d="M37 2 L59 2 L59 13 L37 13 L37 2 Z"/>
            </clipPath>
            <clipPath clipPathUnits="userSpaceOnUse" id="clipPath4">
                <path d="M63 195 L105 195 L105 229 L63 229 L63 195 Z"/>
            </clipPath>
            <clipPath clipPathUnits="userSpaceOnUse" id="clipPath5">
                <path d="M66 226 L101 226 L101 237 L66 237 L66 226 Z"/>
            </clipPath>
            <clipPath clipPathUnits="userSpaceOnUse" id="clipPath6">
                <path d="M94 46 L212 46 L212 92 L94 92 L94 46 Z"/>
            </clipPath>
            <clipPath clipPathUnits="userSpaceOnUse" id="clipPath7">
                <path d="M115 63 L190 63 L190 74 L115 74 L115 63 Z"/>
            </clipPath>
            <clipPath clipPathUnits="userSpaceOnUse" id="clipPath8">
                <path d="M152 104 L285 104 L285 149 L152 149 L152 104 Z"/>
            </clipPath>
            <clipPath clipPathUnits="userSpaceOnUse" id="clipPath9">
                <path d="M172 121 L264 121 L264 132 L172 132 L172 121 Z"/>
            </clipPath>
            <clipPath clipPathUnits="userSpaceOnUse" id="clipPath10">
                <path d="M153 179 L291 179 L291 221 L153 221 L153 179 Z"/>
            </clipPath>
            <clipPath clipPathUnits="userSpaceOnUse" id="clipPath11">
                <path d="M179 195 L265 195 L265 206 L179 206 L179 195 Z"/>
            </clipPath>
            <clipPath clipPathUnits="userSpaceOnUse" id="clipPath12">
                <path d="M196 265 L321 265 L321 307 L196 307 L196 265 Z"/>
            </clipPath>
            <clipPath clipPathUnits="userSpaceOnUse" id="clipPath13">
                <path d="M248 280 L269 280 L269 291 L248 291 L248 280 Z"/>
            </clipPath>
            <clipPath clipPathUnits="userSpaceOnUse" id="clipPath14">
                <path d="M269 16 L399 16 L399 43 L269 43 L269 16 Z"/>
            </clipPath>
            <clipPath clipPathUnits="userSpaceOnUse" id="clipPath15">
                <path d="M290 20 L378 20 L378 39 L290 39 L290 20 Z"/>
            </clipPath>
            <clipPath clipPathUnits="userSpaceOnUse" id="clipPath16">
                <path d="M329 83 L446 83 L446 112 L329 112 L329 83 Z"/>
            </clipPath>
            <clipPath clipPathUnits="userSpaceOnUse" id="clipPath17">
                <path d="M356 92 L419 92 L419 103 L356 103 L356 92 Z"/>
            </clipPath>
            <clipPath clipPathUnits="userSpaceOnUse" id="clipPath18">
                <path d="M311 171 L415 171 L415 213 L311 213 L311 171 Z"/>
            </clipPath>
            <clipPath clipPathUnits="userSpaceOnUse" id="clipPath19">
                <path d="M320 187 L406 187 L406 198 L320 198 L320 187 Z"/>
            </clipPath>
            <clipPath clipPathUnits="userSpaceOnUse" id="clipPath20">
                <path d="M464 104 L527 104 L527 146 L464 146 L464 104 Z"/>
            </clipPath>
            <clipPath clipPathUnits="userSpaceOnUse" id="clipPath21">
                <path d="M480 115 L511 115 L511 135 L480 135 L480 115 Z"/>
            </clipPath>
            <clipPath clipPathUnits="userSpaceOnUse" id="clipPath22">
                <path d="M461 172 L524 172 L524 214 L461 214 L461 172 Z"/>
            </clipPath>
            <clipPath clipPathUnits="userSpaceOnUse" id="clipPath23">
                <path d="M465 188 L520 188 L520 199 L465 199 L465 188 Z"/>
            </clipPath>
            <clipPath clipPathUnits="userSpaceOnUse" id="clipPath24">
                <path d="M458 233 L520 233 L520 275 L458 275 L458 233 Z"/>
            </clipPath>
            <clipPath clipPathUnits="userSpaceOnUse" id="clipPath25">
                <path d="M470 244 L508 244 L508 264 L470 264 L470 244 Z"/>
            </clipPath>
            <clipPath clipPathUnits="userSpaceOnUse" id="clipPath26">
                <path d="M450 297 L512 297 L512 339 L450 339 L450 297 Z"/>
            </clipPath>
            <clipPath clipPathUnits="userSpaceOnUse" id="clipPath27">
                <path d="M453 313 L509 313 L509 324 L453 324 L453 313 Z"/>
            </clipPath>
            <clipPath clipPathUnits="userSpaceOnUse" id="clipPath28">
                <path d="M319 337 L382 337 L382 379 L319 379 L319 337 Z"/>
            </clipPath>
            <clipPath clipPathUnits="userSpaceOnUse" id="clipPath29">
                <path d="M327 353 L374 353 L374 364 L327 364 L327 353 Z"/>
            </clipPath>
            <clipPath clipPathUnits="userSpaceOnUse" id="clipPath30">
                <path d="M221 337 L284 337 L284 379 L221 379 L221 337 Z"/>
            </clipPath>
            <clipPath clipPathUnits="userSpaceOnUse" id="clipPath31">
                <path d="M225 353 L280 353 L280 364 L225 364 L225 353 Z"/>
            </clipPath>
            <clipPath clipPathUnits="userSpaceOnUse" id="clipPath32">
                <path d="M128 339 L191 339 L191 381 L128 381 L128 339 Z"/>
            </clipPath>
            <clipPath clipPathUnits="userSpaceOnUse" id="clipPath33">
                <path d="M141 350 L178 350 L178 370 L141 370 L141 350 Z"/>
            </clipPath>
            <clipPath clipPathUnits="userSpaceOnUse" id="clipPath34">
                <path d="M287 222 L349 222 L349 265 L287 265 L287 222 Z"/>
            </clipPath>
            <clipPath clipPathUnits="userSpaceOnUse" id="clipPath35">
                <path d="M298 238 L338 238 L338 249 L298 249 L298 238 Z"/>
            </clipPath>
            <clipPath clipPathUnits="userSpaceOnUse" id="clipPath36">
                <path d="M96 130 L198 130 L198 210 L96 210 L96 130 Z"/>
            </clipPath>
            <clipPath clipPathUnits="userSpaceOnUse" id="clipPath37">
                <path d="M78 82 L150 82 L150 203 L78 203 L78 82 Z"/>
            </clipPath>
            <clipPath clipPathUnits="userSpaceOnUse" id="clipPath38">
                <path d="M96 186 L204 186 L204 239 L96 239 L96 186 Z"/>
            </clipPath>
            <clipPath clipPathUnits="userSpaceOnUse" id="clipPath39">
                <path d="M96 205 L227 205 L227 278 L96 278 L96 205 Z"/>
            </clipPath>
            <clipPath clipPathUnits="userSpaceOnUse" id="clipPath40">
                <path d="M29 60 L744 60 L744 296 L29 296 L29 60 Z"/>
            </clipPath>
            <clipPath clipPathUnits="userSpaceOnUse" id="clipPath41">
                <path d="M36 171 L82 171 L82 182 L36 182 L36 171 Z"/>
            </clipPath>
            <clipPath clipPathUnits="userSpaceOnUse" id="clipPath42">
                <path d="M191 281 L199 281 L199 289 L191 289 L191 281 Z"/>
            </clipPath>
            <clipPath clipPathUnits="userSpaceOnUse" id="clipPath43">
                <path d="M233 33 L327 33 L327 114 L233 114 L233 33 Z"/>
            </clipPath>
            <clipPath clipPathUnits="userSpaceOnUse" id="clipPath44">
                <path d="M260 75 L307 75 L307 86 L260 86 L260 75 Z"/>
            </clipPath>
            <clipPath clipPathUnits="userSpaceOnUse" id="clipPath45">
                <path d="M312 40 L321 40 L321 48 L312 48 L312 40 Z"/>
            </clipPath>
            <clipPath clipPathUnits="userSpaceOnUse" id="clipPath46">
                <path d="M272 176 L332 176 L332 206 L272 206 L272 176 Z"/>
            </clipPath>
            <clipPath clipPathUnits="userSpaceOnUse" id="clipPath47">
                <path d="M279 183 L326 183 L326 194 L279 194 L279 183 Z"/>
            </clipPath>
            <clipPath clipPathUnits="userSpaceOnUse" id="clipPath48">
                <path d="M307 192 L315 192 L315 200 L307 200 L307 192 Z"/>
            </clipPath>
            <clipPath clipPathUnits="userSpaceOnUse" id="clipPath49">
                <path d="M273 295 L339 295 L339 350 L273 350 L273 295 Z"/>
            </clipPath>
            <clipPath clipPathUnits="userSpaceOnUse" id="clipPath50">
                <path d="M286 309 L333 309 L333 320 L286 320 L286 309 Z"/>
            </clipPath>
            <clipPath clipPathUnits="userSpaceOnUse" id="clipPath51">
                <path d="M324 336 L333 336 L333 344 L324 344 L324 336 Z"/>
            </clipPath>
            <clipPath clipPathUnits="userSpaceOnUse" id="clipPath52">
                <path d="M236 297 L296 297 L296 345 L236 345 L236 297 Z"/>
            </clipPath>
            <clipPath clipPathUnits="userSpaceOnUse" id="clipPath53">
                <path d="M243 310 L290 310 L290 321 L243 321 L243 310 Z"/>
            </clipPath>
            <clipPath clipPathUnits="userSpaceOnUse" id="clipPath54">
                <path d="M250 330 L258 330 L258 339 L250 339 L250 330 Z"/>
            </clipPath>
            <clipPath clipPathUnits="userSpaceOnUse" id="clipPath55">
                <path d="M154 295 L242 295 L242 352 L154 352 L154 295 Z"/>
            </clipPath>
            <clipPath clipPathUnits="userSpaceOnUse" id="clipPath56">
                <path d="M161 319 L208 319 L208 330 L161 330 L161 319 Z"/>
            </clipPath>
            <clipPath clipPathUnits="userSpaceOnUse" id="clipPath57">
                <path d="M178 338 L186 338 L186 346 L178 346 L178 338 Z"/>
            </clipPath>
            <clipPath clipPathUnits="userSpaceOnUse" id="clipPath58">
                <path d="M336 33 L751 33 L751 139 L336 139 L336 33 Z"/>
            </clipPath>
            <clipPath clipPathUnits="userSpaceOnUse" id="clipPath59">
                <path d="M359 51 L405 51 L405 62 L359 62 L359 51 Z"/>
            </clipPath>
            <clipPath clipPathUnits="userSpaceOnUse" id="clipPath60">
                <path d="M343 40 L351 40 L351 48 L343 48 L343 40 Z"/>
            </clipPath>
            <clipPath clipPathUnits="userSpaceOnUse" id="clipPath61">
                <path d="M309 202 L369 202 L369 234 L309 234 L309 202 Z"/>
            </clipPath>
            <clipPath clipPathUnits="userSpaceOnUse" id="clipPath62">
                <path d="M316 213 L363 213 L363 224 L316 224 L316 213 Z"/>
            </clipPath>
            <clipPath clipPathUnits="userSpaceOnUse" id="clipPath63">
                <path d="M331 219 L339 219 L339 228 L331 228 L331 219 Z"/>
            </clipPath>
            <clipPath clipPathUnits="userSpaceOnUse" id="clipPath64">
                <path d="M386 97 L741 97 L741 183 L386 183 L386 97 Z"/>
            </clipPath>
            <clipPath clipPathUnits="userSpaceOnUse" id="clipPath65">
                <path d="M407 138 L453 138 L453 149 L407 149 L407 138 Z"/>
            </clipPath>
            <clipPath clipPathUnits="userSpaceOnUse" id="clipPath66">
                <path d="M393 169 L401 169 L401 177 L393 177 L393 169 Z"/>
            </clipPath>
            <clipPath clipPathUnits="userSpaceOnUse" id="clipPath67">
                <path d="M405 106 L741 106 L741 202 L405 202 L405 106 Z"/>
            </clipPath>
            <clipPath clipPathUnits="userSpaceOnUse" id="clipPath68">
                <path d="M422 175 L468 175 L468 186 L422 186 L422 175 Z"/>
            </clipPath>
            <clipPath clipPathUnits="userSpaceOnUse" id="clipPath69">
                <path d="M412 187 L420 187 L420 195 L412 195 L412 187 Z"/>
            </clipPath>
            <clipPath clipPathUnits="userSpaceOnUse" id="clipPath70">
                <path d="M387 125 L743 125 L743 249 L387 249 L387 125 Z"/>
            </clipPath>
            <clipPath clipPathUnits="userSpaceOnUse" id="clipPath71">
                <path d="M411 209 L457 209 L457 220 L411 220 L411 209 Z"/>
            </clipPath>
            <clipPath clipPathUnits="userSpaceOnUse" id="clipPath72">
                <path d="M394 205 L402 205 L402 212 L394 212 L394 205 Z"/>
            </clipPath>
            <clipPath clipPathUnits="userSpaceOnUse" id="clipPath73">
                <path d="M365 128 L751 128 L751 308 L365 308 L365 128 Z"/>
            </clipPath>
            <clipPath clipPathUnits="userSpaceOnUse" id="clipPath74">
                <path d="M372 248 L418 248 L418 259 L372 259 L372 248 Z"/>
            </clipPath>
            <clipPath clipPathUnits="userSpaceOnUse" id="clipPath75">
                <path d="M379 209 L387 209 L387 217 L379 217 L379 209 Z"/>
            </clipPath>
        </defs>
        <g font-size="7" fill="white" stroke-linejoin="round"
            stroke="white" stroke-width="0.7" stroke-miterlimit="0">
            <rect x="0" y="0" clip-path="url(#clipPath1)" width="574"
                height="400" stroke="none"/>
            <line clip-path="url(#clipPath1)" fill="none" x1="0" x2="60"
                y1="15" y2="15" stroke="black"/>
            <line clip-path="url(#clipPath1)" fill="none" x1="60"
                x2="63" y1="15" y2="8" stroke="black"/>
            <line clip-path="url(#clipPath1)" fill="none" x1="63"
                x2="63" y1="8" y2="0" stroke="black"/>
            <text x="3" y="10" clip-path="url(#clipPath2)" fill="black"
                stroke="none" font-weight="bold" xml:space="preserve">package </text>
            <text x="38" y="10" clip-path="url(#clipPath3)" fill="black"
                stroke="none" xml:space="preserve">Model</text>
            <ellipse clip-path="url(#clipPath4)" fill="none" rx="4"
                cx="83" ry="3.5" cy="199.5" stroke="black"/>
            <circle r="3.5" clip-path="url(#clipPath4)" cx="82.5"
                cy="199.5" stroke="none"/>
            <line clip-path="url(#clipPath4)" fill="none" x1="83"
                x2="83" y1="203" y2="215" stroke="black"/>
            <line clip-path="url(#clipPath4)" fill="none" x1="76"
                x2="91" y1="207" y2="207" stroke="black"/>
            <line clip-path="url(#clipPath4)" fill="none" x1="76"
                x2="83" y1="227" y2="215" stroke="black"/>
            <line clip-path="url(#clipPath4)" fill="none" x1="91"
                x2="83" y1="227" y2="215" stroke="black"/>
            <text x="67" y="234" clip-path="url(#clipPath5)"
                fill="black" stroke="none" xml:space="preserve">Utilisateur</text>
            <ellipse clip-path="url(#clipPath6)" rx="57.5" cx="152.5"
                ry="21.5" cy="68.5" stroke="none"/>
            <ellipse clip-path="url(#clipPath6)" fill="none" rx="57.5"
                cx="152.5" ry="21.5" cy="68.5" stroke="black"/>
            <text x="116" y="71" clip-path="url(#clipPath7)"
                fill="black" stroke="none" xml:space="preserve">Collecte d'informations</text>
            <ellipse clip-path="url(#clipPath8)" rx="65" cx="218"
                ry="21" cy="126" stroke="none"/>
            <ellipse clip-path="url(#clipPath8)" fill="none" rx="65"
                cx="218" ry="21" cy="126" stroke="black"/>
            <text x="173" y="129" clip-path="url(#clipPath9)"
                fill="black" stroke="none" xml:space="preserve">Traitement des informations</text>
            <ellipse clip-path="url(#clipPath10)" rx="67.5" cx="221.5"
                ry="19.5" cy="199.5" stroke="none"/>
            <ellipse clip-path="url(#clipPath10)" fill="none" rx="67.5"
                cx="221.5" ry="19.5" cy="199.5" stroke="black"/>
            <text x="180" y="203" clip-path="url(#clipPath11)"
                fill="black" stroke="none" xml:space="preserve">Organisation des données</text>
            <ellipse clip-path="url(#clipPath12)" rx="61" cx="258"
                ry="19.5" cy="285.5" stroke="none"/>
            <ellipse clip-path="url(#clipPath12)" fill="none" rx="61"
                cx="258" ry="19.5" cy="285.5" stroke="black"/>
            <text x="249" y="288" clip-path="url(#clipPath13)"
                fill="black" stroke="none" xml:space="preserve">Revue</text>
            <ellipse clip-path="url(#clipPath14)" rx="63.5" cx="333.5"
                ry="12" cy="29" stroke="none"/>
            <ellipse clip-path="url(#clipPath14)" fill="none" rx="63.5"
                cx="333.5" ry="12" cy="29" stroke="black"/>
            <text x="291" y="28" clip-path="url(#clipPath15)"
                fill="black" stroke="none" xml:space="preserve">Selection des informations</text>
            <text x="315" y="36" clip-path="url(#clipPath15)"
                fill="black" stroke="none" xml:space="preserve">pertinentes</text>
            <ellipse clip-path="url(#clipPath16)" rx="57" cx="387"
                ry="13" cy="97" stroke="none"/>
            <ellipse clip-path="url(#clipPath16)" fill="none" rx="57"
                cx="387" ry="13" cy="97" stroke="black"/>
            <text x="357" y="100" clip-path="url(#clipPath17)"
                fill="black" stroke="none" xml:space="preserve">Création de tâches</text>
            <ellipse clip-path="url(#clipPath18)" rx="50.5" cx="362.5"
                ry="19.5" cy="191.5" stroke="none"/>
            <ellipse clip-path="url(#clipPath18)" fill="none" rx="50.5"
                cx="362.5" ry="19.5" cy="191.5" stroke="black"/>
            <text x="321" y="195" clip-path="url(#clipPath19)"
                fill="black" stroke="none" xml:space="preserve">Regroupement des tâches</text>
            <ellipse clip-path="url(#clipPath20)" rx="30" cx="495"
                ry="19.5" cy="124.5" stroke="none"/>
            <ellipse clip-path="url(#clipPath20)" fill="none" rx="30"
                cx="495" ry="19.5" cy="124.5" stroke="black"/>
            <text x="481" y="123" clip-path="url(#clipPath21)"
                fill="black" stroke="none" xml:space="preserve">Liste par</text>
            <text x="481" y="132" clip-path="url(#clipPath21)"
                fill="black" stroke="none" xml:space="preserve">contexte</text>
            <ellipse clip-path="url(#clipPath22)" rx="30" cx="492"
                ry="19.5" cy="192.5" stroke="none"/>
            <ellipse clip-path="url(#clipPath22)" fill="none" rx="30"
                cx="492" ry="19.5" cy="192.5" stroke="black"/>
            <text x="466" y="196" clip-path="url(#clipPath23)"
                fill="black" stroke="none" xml:space="preserve">Liste par dossier</text>
            <ellipse clip-path="url(#clipPath24)" rx="29.5" cx="488.5"
                ry="19.5" cy="253.5" stroke="none"/>
            <ellipse clip-path="url(#clipPath24)" fill="none" rx="29.5"
                cx="488.5" ry="19.5" cy="253.5" stroke="black"/>
            <text x="475" y="252" clip-path="url(#clipPath25)"
                fill="black" stroke="none" xml:space="preserve">Liste par</text>
            <text x="471" y="261" clip-path="url(#clipPath25)"
                fill="black" stroke="none" xml:space="preserve">échéancier</text>
            <ellipse clip-path="url(#clipPath26)" rx="29.5" cx="480.5"
                ry="19.5" cy="317.5" stroke="none"/>
            <ellipse clip-path="url(#clipPath26)" fill="none" rx="29.5"
                cx="480.5" ry="19.5" cy="317.5" stroke="black"/>
            <text x="454" y="321" clip-path="url(#clipPath27)"
                fill="black" stroke="none" xml:space="preserve">Liste par agenda</text>
            <ellipse clip-path="url(#clipPath28)" rx="30" cx="350"
                ry="19.5" cy="357.5" stroke="none"/>
            <ellipse clip-path="url(#clipPath28)" fill="none" rx="30"
                cx="350" ry="19.5" cy="357.5" stroke="black"/>
            <text x="328" y="361" clip-path="url(#clipPath29)"
                fill="black" stroke="none" xml:space="preserve">Maj contextes</text>
            <ellipse clip-path="url(#clipPath30)" rx="30" cx="252"
                ry="19.5" cy="357.5" stroke="none"/>
            <ellipse clip-path="url(#clipPath30)" fill="none" rx="30"
                cx="252" ry="19.5" cy="357.5" stroke="black"/>
            <text x="226" y="361" clip-path="url(#clipPath31)"
                fill="black" stroke="none" xml:space="preserve">Examen agenda</text>
            <ellipse clip-path="url(#clipPath32)" rx="30" cx="159"
                ry="19.5" cy="359.5" stroke="none"/>
            <ellipse clip-path="url(#clipPath32)" fill="none" rx="30"
                cx="159" ry="19.5" cy="359.5" stroke="black"/>
            <text x="146" y="358" clip-path="url(#clipPath33)"
                fill="black" stroke="none" xml:space="preserve">Examen</text>
            <text x="142" y="367" clip-path="url(#clipPath33)"
                fill="black" stroke="none" xml:space="preserve">Echeancier</text>
            <ellipse clip-path="url(#clipPath34)" rx="29.5" cx="317.5"
                ry="20" cy="243" stroke="none"/>
            <ellipse clip-path="url(#clipPath34)" fill="none" rx="29.5"
                cx="317.5" ry="20" cy="243" stroke="black"/>
            <text x="299" y="246" clip-path="url(#clipPath35)"
                fill="black" stroke="none" xml:space="preserve">Creer Projet</text>
            <rect x="0" y="0" clip-path="url(#clipPath1)" fill="none"
                width="573" height="399" stroke="black"/>
            <line clip-path="url(#clipPath36)" fill="none" x1="104"
                x2="190" y1="202" y2="145" stroke="black"/>
            <line clip-path="url(#clipPath37)" fill="none" x1="93"
                x2="142" y1="195" y2="90" stroke="black"/>
            <line clip-path="url(#clipPath38)" fill="none" x1="104"
                x2="159" y1="213" y2="207" stroke="black"/>
            <line clip-path="url(#clipPath39)" fill="none" x1="104"
                x2="219" y1="224" y2="270" stroke="black"/>
            <line clip-path="url(#clipPath40)" fill="none" x1="94"
                x2="59" y1="68" y2="67" stroke-dasharray="10,5" stroke="black"/>
            <line clip-path="url(#clipPath40)" fill="none" x1="59"
                x2="59" y1="67" y2="285" stroke-dasharray="10,5" stroke="black"/>
            <line clip-path="url(#clipPath40)" fill="none" x1="59"
                x2="197" y1="285" y2="285" stroke-dasharray="10,5" stroke="black"/>
            <text x="37" y="179" clip-path="url(#clipPath41)"
                fill="black" stroke="none" xml:space="preserve">&lt;&lt;extend&gt;&gt;</text>
            <line clip-path="url(#clipPath42)" fill="none" x1="192"
                x2="197" y1="287" y2="285" stroke="black"/>
            <line clip-path="url(#clipPath42)" fill="none" x1="197"
                x2="192" y1="285" y2="282" stroke="black"/>
            <line clip-path="url(#clipPath43)" fill="none" x1="241"
                x2="319" y1="106" y2="41" stroke-dasharray="10,5" stroke="black"/>
            <text x="261" y="83" clip-path="url(#clipPath44)"
                fill="black" stroke="none" xml:space="preserve">&lt;&lt;include&gt;&gt;</text>
            <line clip-path="url(#clipPath45)" fill="none" x1="317"
                x2="319" y1="46" y2="41" stroke="black"/>
            <line clip-path="url(#clipPath45)" fill="none" x1="319"
                x2="313" y1="41" y2="42" stroke="black"/>
            <line clip-path="url(#clipPath46)" fill="none" x1="288"
                x2="313" y1="197" y2="195" stroke-dasharray="10,5" stroke="black"/>
            <text x="280" y="191" clip-path="url(#clipPath47)"
                fill="black" stroke="none" xml:space="preserve">&lt;&lt;include&gt;&gt;</text>
            <line clip-path="url(#clipPath48)" fill="none" x1="308"
                x2="313" y1="198" y2="195" stroke="black"/>
            <line clip-path="url(#clipPath48)" fill="none" x1="313"
                x2="308" y1="195" y2="193" stroke="black"/>
            <line clip-path="url(#clipPath49)" fill="none" x1="281"
                x2="331" y1="303" y2="342" stroke-dasharray="10,5" stroke="black"/>
            <text x="287" y="317" clip-path="url(#clipPath50)"
                fill="black" stroke="none" xml:space="preserve">&lt;&lt;include&gt;&gt;</text>
            <line clip-path="url(#clipPath51)" fill="none" x1="325"
                x2="331" y1="341" y2="342" stroke="black"/>
            <line clip-path="url(#clipPath51)" fill="none" x1="331"
                x2="328" y1="342" y2="337" stroke="black"/>
            <line clip-path="url(#clipPath52)" fill="none" x1="257"
                x2="253" y1="305" y2="337" stroke-dasharray="10,5" stroke="black"/>
            <text x="244" y="318" clip-path="url(#clipPath53)"
                fill="black" stroke="none" xml:space="preserve">&lt;&lt;include&gt;&gt;</text>
            <line clip-path="url(#clipPath54)" fill="none" x1="251"
                x2="253" y1="331" y2="337" stroke="black"/>
            <line clip-path="url(#clipPath54)" fill="none" x1="253"
                x2="256" y1="337" y2="332" stroke="black"/>
            <line clip-path="url(#clipPath55)" fill="none" x1="234"
                x2="179" y1="303" y2="344" stroke-dasharray="10,5" stroke="black"/>
            <text x="162" y="327" clip-path="url(#clipPath56)"
                fill="black" stroke="none" xml:space="preserve">&lt;&lt;include&gt;&gt;</text>
            <line clip-path="url(#clipPath57)" fill="none" x1="181"
                x2="179" y1="339" y2="344" stroke="black"/>
            <line clip-path="url(#clipPath57)" fill="none" x1="179"
                x2="184" y1="344" y2="343" stroke="black"/>
            <line clip-path="url(#clipPath58)" fill="none" x1="377"
                x2="344" y1="84" y2="41" stroke-dasharray="10,5" stroke="black"/>
            <text x="360" y="59" clip-path="url(#clipPath59)"
                fill="black" stroke="none" xml:space="preserve">&lt;&lt;extend&gt;&gt;</text>
            <line clip-path="url(#clipPath60)" fill="none" x1="349"
                x2="344" y1="43" y2="41" stroke="black"/>
            <line clip-path="url(#clipPath60)" fill="none" x1="344"
                x2="345" y1="41" y2="46" stroke="black"/>
            <line clip-path="url(#clipPath61)" fill="none" x1="347"
                x2="332" y1="210" y2="226" stroke-dasharray="10,5" stroke="black"/>
            <text x="317" y="221" clip-path="url(#clipPath62)"
                fill="black" stroke="none" xml:space="preserve">&lt;&lt;include&gt;&gt;</text>
            <line clip-path="url(#clipPath63)" fill="none" x1="333"
                x2="332" y1="220" y2="226" stroke="black"/>
            <line clip-path="url(#clipPath63)" fill="none" x1="332"
                x2="337" y1="226" y2="224" stroke="black"/>
            <line clip-path="url(#clipPath64)" fill="none" x1="471"
                x2="394" y1="136" y2="175" stroke-dasharray="10,5" stroke="black"/>
            <text x="408" y="146" clip-path="url(#clipPath65)"
                fill="black" stroke="none" xml:space="preserve">&lt;&lt;extend&gt;&gt;</text>
            <line clip-path="url(#clipPath66)" fill="none" x1="397"
                x2="394" y1="170" y2="175" stroke="black"/>
            <line clip-path="url(#clipPath66)" fill="none" x1="394"
                x2="399" y1="175" y2="175" stroke="black"/>
            <line clip-path="url(#clipPath67)" fill="none" x1="462"
                x2="413" y1="192" y2="191" stroke-dasharray="10,5" stroke="black"/>
            <text x="423" y="183" clip-path="url(#clipPath68)"
                fill="black" stroke="none" xml:space="preserve">&lt;&lt;extend&gt;&gt;</text>
            <line clip-path="url(#clipPath69)" fill="none" x1="418"
                x2="413" y1="188" y2="191" stroke="black"/>
            <line clip-path="url(#clipPath69)" fill="none" x1="413"
                x2="418" y1="191" y2="193" stroke="black"/>
            <line clip-path="url(#clipPath70)" fill="none" x1="464"
                x2="395" y1="241" y2="206" stroke-dasharray="10,5" stroke="black"/>
            <text x="412" y="217" clip-path="url(#clipPath71)"
                fill="black" stroke="none" xml:space="preserve">&lt;&lt;extend&gt;&gt;</text>
            <line clip-path="url(#clipPath72)" fill="none" x1="400"
                x2="395" y1="206" y2="206" stroke="black"/>
            <line clip-path="url(#clipPath72)" fill="none" x1="395"
                x2="398" y1="206" y2="210" stroke="black"/>
            <line clip-path="url(#clipPath73)" fill="none" x1="464"
                x2="380" y1="300" y2="210" stroke-dasharray="10,5" stroke="black"/>
            <text x="373" y="256" clip-path="url(#clipPath74)"
                fill="black" stroke="none" xml:space="preserve">&lt;&lt;extend&gt;&gt;</text>
            <line clip-path="url(#clipPath75)" fill="none" x1="385"
                x2="380" y1="212" y2="210" stroke="black"/>
            <line clip-path="url(#clipPath75)" fill="none" x1="380"
                x2="381" y1="210" y2="215" stroke="black"/>
        </g>
    </g>
</svg>
